<mxfile host="app.diagrams.net" modified="2023-05-29T05:47:13.256Z" agent="Mozilla/5.0 (Windows NT 10.0; Win64; x64) AppleWebKit/537.36 (KHTML, like Gecko) Chrome/113.0.0.0 Safari/537.36" version="21.3.3" etag="P8BQOlPM-GyyItvtm0o2" type="github">
  <diagram name="Страница 1" id="RphRlvC_X9LbAfS6RRoY">
    <mxGraphModel>
      <root>
        <mxCell id="0" />
        <mxCell id="1" parent="0" />
      </root>
    </mxGraphModel>
  </diagram>
</mxfile>
